<?xml version="1.0" encoding="UTF-8" standalone="no"?>
<!DOCTYPE svg PUBLIC "-//W3C//DTD SVG 1.1//EN" "http://www.w3.org/Graphics/SVG/1.1/DTD/svg11.dtd">
<svg width="100%" height="100%" viewBox="0 0 1101 188" version="1.1" xmlns="http://www.w3.org/2000/svg" xmlns:xlink="http://www.w3.org/1999/xlink" xml:space="preserve" xmlns:serif="http://www.serif.com/" style="fill-rule:evenodd;clip-rule:evenodd;stroke-linejoin:round;stroke-miterlimit:2;">
    <g transform="matrix(1,0,0,1,-713.084,-1553.5)">
        <g transform="matrix(1,0,0,1,-158.625,-126.9)">
            <g transform="matrix(154.167,0,0,154.167,870.788,1776.6)">
                <path d="M0.517,-0.531L0.517,-0.443C0.517,-0.421 0.514,-0.406 0.508,-0.397C0.497,-0.383 0.484,-0.376 0.468,-0.376C0.455,-0.376 0.443,-0.381 0.434,-0.39C0.427,-0.397 0.422,-0.411 0.418,-0.43C0.413,-0.45 0.4,-0.466 0.379,-0.478C0.357,-0.491 0.33,-0.497 0.299,-0.497C0.268,-0.497 0.241,-0.49 0.219,-0.475C0.197,-0.46 0.186,-0.442 0.186,-0.421C0.186,-0.41 0.19,-0.4 0.197,-0.39C0.203,-0.379 0.212,-0.371 0.223,-0.366C0.238,-0.358 0.272,-0.349 0.323,-0.34C0.399,-0.326 0.451,-0.308 0.479,-0.285C0.518,-0.254 0.538,-0.212 0.538,-0.16C0.538,-0.108 0.517,-0.066 0.475,-0.034C0.433,-0.002 0.378,0.014 0.309,0.014C0.254,0.014 0.202,0.001 0.153,-0.025C0.139,-0.008 0.126,-0 0.113,-0C0.079,-0 0.062,-0.022 0.062,-0.067L0.062,-0.133C0.062,-0.155 0.065,-0.17 0.071,-0.179C0.081,-0.192 0.095,-0.199 0.112,-0.199C0.127,-0.199 0.139,-0.194 0.148,-0.185C0.153,-0.18 0.158,-0.169 0.163,-0.151C0.168,-0.133 0.184,-0.118 0.211,-0.105C0.238,-0.092 0.269,-0.086 0.302,-0.086C0.339,-0.086 0.371,-0.093 0.396,-0.108C0.421,-0.123 0.434,-0.141 0.434,-0.162C0.434,-0.184 0.422,-0.202 0.398,-0.215C0.382,-0.224 0.347,-0.233 0.293,-0.242C0.236,-0.251 0.193,-0.264 0.164,-0.281C0.139,-0.296 0.119,-0.315 0.104,-0.34C0.089,-0.365 0.082,-0.391 0.082,-0.42C0.082,-0.471 0.103,-0.513 0.144,-0.547C0.185,-0.58 0.237,-0.597 0.299,-0.597C0.351,-0.597 0.394,-0.586 0.429,-0.564C0.434,-0.577 0.44,-0.585 0.445,-0.59C0.45,-0.595 0.458,-0.597 0.468,-0.597C0.487,-0.597 0.501,-0.589 0.51,-0.574C0.515,-0.567 0.517,-0.553 0.517,-0.531Z" style="fill:rgb(255,0,157);fill-rule:nonzero;"/>
            </g>
            <g transform="matrix(154.167,0,0,154.167,963.288,1776.6)">
                <path d="M0.215,-0.164L0.215,-0L0.099,-0C0.055,-0 0.033,-0.017 0.033,-0.05C0.033,-0.069 0.041,-0.084 0.057,-0.093C0.064,-0.098 0.078,-0.1 0.099,-0.1L0.115,-0.1L0.115,-0.524L0.099,-0.524C0.077,-0.524 0.062,-0.527 0.053,-0.533C0.04,-0.544 0.033,-0.558 0.033,-0.574C0.033,-0.593 0.041,-0.608 0.057,-0.617C0.064,-0.622 0.078,-0.624 0.099,-0.624L0.215,-0.624L0.215,-0.287L0.294,-0.35C0.283,-0.363 0.278,-0.375 0.278,-0.387C0.278,-0.405 0.286,-0.419 0.302,-0.43C0.309,-0.435 0.324,-0.437 0.345,-0.437L0.457,-0.437C0.479,-0.437 0.494,-0.434 0.503,-0.428C0.516,-0.418 0.523,-0.404 0.523,-0.387C0.523,-0.369 0.515,-0.355 0.499,-0.344C0.492,-0.339 0.478,-0.337 0.457,-0.337L0.429,-0.337L0.311,-0.241L0.471,-0.1L0.504,-0.1C0.526,-0.1 0.541,-0.097 0.55,-0.091C0.564,-0.08 0.571,-0.067 0.571,-0.05C0.571,-0.032 0.563,-0.018 0.547,-0.007C0.54,-0.002 0.525,-0 0.504,-0L0.386,-0C0.342,-0 0.32,-0.017 0.32,-0.05C0.32,-0.063 0.325,-0.076 0.336,-0.087L0.233,-0.178L0.215,-0.164Z" style="fill:rgb(255,0,157);fill-rule:nonzero;"/>
            </g>
            <g transform="matrix(154.167,0,0,154.167,1055.79,1776.6)">
                <path d="M0.242,-0.003L0.07,-0.337C0.037,-0.341 0.021,-0.358 0.021,-0.387C0.021,-0.401 0.025,-0.412 0.034,-0.422C0.042,-0.431 0.053,-0.436 0.067,-0.437L0.177,-0.437C0.199,-0.437 0.214,-0.434 0.223,-0.428C0.236,-0.417 0.243,-0.403 0.243,-0.387C0.243,-0.355 0.223,-0.338 0.184,-0.337L0.298,-0.114L0.418,-0.337C0.375,-0.337 0.354,-0.354 0.354,-0.387C0.354,-0.401 0.358,-0.412 0.367,-0.422C0.375,-0.431 0.386,-0.436 0.4,-0.437C0.402,-0.438 0.406,-0.438 0.411,-0.438C0.417,-0.437 0.42,-0.437 0.421,-0.437L0.513,-0.437C0.535,-0.437 0.55,-0.434 0.558,-0.428C0.572,-0.418 0.579,-0.404 0.579,-0.387C0.579,-0.357 0.562,-0.34 0.527,-0.337L0.297,0.105L0.302,0.105C0.324,0.105 0.339,0.108 0.348,0.114C0.361,0.125 0.368,0.139 0.368,0.155C0.368,0.173 0.36,0.187 0.344,0.198C0.337,0.203 0.323,0.205 0.302,0.205L0.087,0.205C0.064,0.205 0.049,0.202 0.042,0.195C0.028,0.185 0.021,0.172 0.021,0.155C0.021,0.136 0.029,0.121 0.045,0.112C0.054,0.107 0.068,0.105 0.087,0.105L0.187,0.105L0.242,-0.003Z" style="fill:rgb(255,0,157);fill-rule:nonzero;"/>
            </g>
            <g transform="matrix(154.167,0,0,154.167,1240.79,1776.6)">
                <path d="M0.094,-0.1L0.094,-0.483L0.079,-0.483C0.057,-0.483 0.042,-0.486 0.034,-0.492C0.02,-0.503 0.013,-0.516 0.013,-0.533C0.013,-0.552 0.021,-0.566 0.037,-0.576C0.044,-0.581 0.058,-0.583 0.079,-0.583L0.332,-0.583C0.389,-0.583 0.436,-0.567 0.472,-0.536C0.509,-0.505 0.528,-0.465 0.528,-0.418C0.528,-0.375 0.507,-0.338 0.465,-0.305C0.536,-0.27 0.571,-0.221 0.571,-0.16C0.571,-0.112 0.553,-0.073 0.517,-0.044C0.481,-0.015 0.433,-0 0.374,-0L0.079,-0C0.056,-0 0.041,-0.003 0.034,-0.01C0.02,-0.02 0.013,-0.033 0.013,-0.05C0.013,-0.069 0.021,-0.084 0.037,-0.093C0.044,-0.098 0.058,-0.1 0.079,-0.1L0.094,-0.1ZM0.194,-0.342L0.307,-0.342C0.343,-0.342 0.372,-0.349 0.395,-0.364C0.417,-0.378 0.428,-0.396 0.428,-0.419C0.428,-0.439 0.419,-0.455 0.401,-0.466C0.383,-0.477 0.358,-0.483 0.327,-0.483L0.194,-0.483L0.194,-0.342ZM0.194,-0.1L0.369,-0.1C0.437,-0.1 0.471,-0.118 0.471,-0.154C0.471,-0.181 0.457,-0.203 0.428,-0.22C0.403,-0.235 0.37,-0.242 0.329,-0.242L0.194,-0.242L0.194,-0.1Z" style="fill:rgb(255,0,157);fill-rule:nonzero;"/>
            </g>
            <g transform="matrix(154.167,0,0,154.167,1333.29,1776.6)">
                <path d="M0.278,-0.437L0.278,-0.372C0.318,-0.402 0.35,-0.422 0.373,-0.433C0.396,-0.444 0.42,-0.449 0.445,-0.449C0.48,-0.449 0.513,-0.436 0.543,-0.411C0.562,-0.396 0.571,-0.38 0.571,-0.364C0.571,-0.35 0.566,-0.338 0.556,-0.328C0.546,-0.318 0.534,-0.313 0.521,-0.313C0.509,-0.313 0.496,-0.319 0.482,-0.331C0.468,-0.343 0.455,-0.349 0.443,-0.349C0.427,-0.349 0.407,-0.342 0.385,-0.328C0.362,-0.313 0.326,-0.286 0.278,-0.247L0.278,-0.1L0.417,-0.1C0.439,-0.1 0.454,-0.097 0.463,-0.091C0.477,-0.08 0.484,-0.067 0.484,-0.05C0.484,-0.031 0.476,-0.016 0.46,-0.007C0.452,-0.002 0.438,-0 0.417,-0L0.12,-0C0.098,-0 0.083,-0.003 0.074,-0.01C0.061,-0.02 0.054,-0.033 0.054,-0.05C0.054,-0.069 0.062,-0.084 0.077,-0.093C0.084,-0.098 0.099,-0.1 0.12,-0.1L0.178,-0.1L0.178,-0.337L0.143,-0.337C0.122,-0.337 0.107,-0.341 0.098,-0.349C0.084,-0.359 0.077,-0.372 0.077,-0.387C0.077,-0.406 0.085,-0.42 0.101,-0.429C0.108,-0.434 0.122,-0.437 0.143,-0.437L0.278,-0.437Z" style="fill:rgb(255,0,157);fill-rule:nonzero;"/>
            </g>
            <g transform="matrix(154.167,0,0,154.167,1425.79,1776.6)">
                <path d="M0.55,-0.172L0.142,-0.172C0.165,-0.113 0.219,-0.084 0.306,-0.084C0.343,-0.084 0.398,-0.093 0.469,-0.112C0.482,-0.115 0.493,-0.117 0.502,-0.117C0.515,-0.117 0.527,-0.112 0.536,-0.102C0.545,-0.093 0.55,-0.081 0.55,-0.067C0.55,-0.048 0.538,-0.033 0.515,-0.022C0.492,-0.012 0.459,-0.003 0.416,0.004C0.372,0.012 0.332,0.016 0.297,0.016C0.22,0.016 0.156,-0.006 0.107,-0.049C0.058,-0.092 0.033,-0.148 0.033,-0.216C0.033,-0.282 0.058,-0.338 0.108,-0.383C0.157,-0.428 0.218,-0.45 0.291,-0.45C0.366,-0.45 0.428,-0.427 0.476,-0.382C0.526,-0.337 0.55,-0.28 0.55,-0.211L0.55,-0.172ZM0.145,-0.26L0.439,-0.26C0.431,-0.287 0.414,-0.309 0.387,-0.326C0.36,-0.342 0.329,-0.35 0.292,-0.35C0.255,-0.35 0.224,-0.342 0.197,-0.325C0.17,-0.308 0.152,-0.287 0.145,-0.26Z" style="fill:rgb(255,0,157);fill-rule:nonzero;"/>
            </g>
            <g transform="matrix(154.167,0,0,154.167,1518.29,1776.6)">
                <path d="M0.389,-0L0.389,-0.023C0.339,0.003 0.283,0.016 0.222,0.016C0.173,0.016 0.13,0.003 0.095,-0.024C0.06,-0.05 0.042,-0.082 0.042,-0.119C0.042,-0.152 0.055,-0.183 0.081,-0.212C0.126,-0.263 0.194,-0.288 0.284,-0.288C0.315,-0.288 0.35,-0.285 0.389,-0.278L0.389,-0.301C0.389,-0.334 0.358,-0.35 0.295,-0.35C0.261,-0.35 0.222,-0.344 0.179,-0.333C0.162,-0.329 0.148,-0.327 0.139,-0.327C0.125,-0.327 0.113,-0.332 0.104,-0.342C0.095,-0.351 0.09,-0.363 0.09,-0.378C0.09,-0.399 0.1,-0.413 0.12,-0.42C0.177,-0.44 0.234,-0.45 0.292,-0.45C0.353,-0.45 0.402,-0.437 0.437,-0.411C0.471,-0.385 0.489,-0.349 0.489,-0.302L0.489,-0.1L0.505,-0.1C0.527,-0.1 0.542,-0.097 0.551,-0.091C0.564,-0.08 0.571,-0.066 0.571,-0.05C0.571,-0.031 0.563,-0.016 0.547,-0.007C0.54,-0.002 0.526,-0 0.505,-0L0.389,-0ZM0.389,-0.135L0.389,-0.185C0.347,-0.192 0.31,-0.196 0.278,-0.196C0.244,-0.196 0.214,-0.189 0.188,-0.174C0.161,-0.159 0.148,-0.142 0.148,-0.123C0.148,-0.112 0.155,-0.102 0.17,-0.095C0.185,-0.088 0.203,-0.084 0.224,-0.084C0.279,-0.084 0.334,-0.101 0.389,-0.135Z" style="fill:rgb(255,0,157);fill-rule:nonzero;"/>
            </g>
            <g transform="matrix(154.167,0,0,154.167,1610.79,1776.6)">
                <path d="M0.215,-0.164L0.215,-0L0.099,-0C0.055,-0 0.033,-0.017 0.033,-0.05C0.033,-0.069 0.041,-0.084 0.057,-0.093C0.064,-0.098 0.078,-0.1 0.099,-0.1L0.115,-0.1L0.115,-0.524L0.099,-0.524C0.077,-0.524 0.062,-0.527 0.053,-0.533C0.04,-0.544 0.033,-0.558 0.033,-0.574C0.033,-0.593 0.041,-0.608 0.057,-0.617C0.064,-0.622 0.078,-0.624 0.099,-0.624L0.215,-0.624L0.215,-0.287L0.294,-0.35C0.283,-0.363 0.278,-0.375 0.278,-0.387C0.278,-0.405 0.286,-0.419 0.302,-0.43C0.309,-0.435 0.324,-0.437 0.345,-0.437L0.457,-0.437C0.479,-0.437 0.494,-0.434 0.503,-0.428C0.516,-0.418 0.523,-0.404 0.523,-0.387C0.523,-0.369 0.515,-0.355 0.499,-0.344C0.492,-0.339 0.478,-0.337 0.457,-0.337L0.429,-0.337L0.311,-0.241L0.471,-0.1L0.504,-0.1C0.526,-0.1 0.541,-0.097 0.55,-0.091C0.564,-0.08 0.571,-0.067 0.571,-0.05C0.571,-0.032 0.563,-0.018 0.547,-0.007C0.54,-0.002 0.525,-0 0.504,-0L0.386,-0C0.342,-0 0.32,-0.017 0.32,-0.05C0.32,-0.063 0.325,-0.076 0.336,-0.087L0.233,-0.178L0.215,-0.164Z" style="fill:rgb(255,0,157);fill-rule:nonzero;"/>
            </g>
            <g transform="matrix(154.167,0,0,154.167,1703.29,1776.6)">
                <path d="M0.55,-0.172L0.142,-0.172C0.165,-0.113 0.219,-0.084 0.306,-0.084C0.343,-0.084 0.398,-0.093 0.469,-0.112C0.482,-0.115 0.493,-0.117 0.502,-0.117C0.515,-0.117 0.527,-0.112 0.536,-0.102C0.545,-0.093 0.55,-0.081 0.55,-0.067C0.55,-0.048 0.538,-0.033 0.515,-0.022C0.492,-0.012 0.459,-0.003 0.416,0.004C0.372,0.012 0.332,0.016 0.297,0.016C0.22,0.016 0.156,-0.006 0.107,-0.049C0.058,-0.092 0.033,-0.148 0.033,-0.216C0.033,-0.282 0.058,-0.338 0.108,-0.383C0.157,-0.428 0.218,-0.45 0.291,-0.45C0.366,-0.45 0.428,-0.427 0.476,-0.382C0.526,-0.337 0.55,-0.28 0.55,-0.211L0.55,-0.172ZM0.145,-0.26L0.439,-0.26C0.431,-0.287 0.414,-0.309 0.387,-0.326C0.36,-0.342 0.329,-0.35 0.292,-0.35C0.255,-0.35 0.224,-0.342 0.197,-0.325C0.17,-0.308 0.152,-0.287 0.145,-0.26Z" style="fill:rgb(255,0,157);fill-rule:nonzero;"/>
            </g>
            <g transform="matrix(154.167,0,0,154.167,1795.79,1776.6)">
                <path d="M0.278,-0.437L0.278,-0.372C0.318,-0.402 0.35,-0.422 0.373,-0.433C0.396,-0.444 0.42,-0.449 0.445,-0.449C0.48,-0.449 0.513,-0.436 0.543,-0.411C0.562,-0.396 0.571,-0.38 0.571,-0.364C0.571,-0.35 0.566,-0.338 0.556,-0.328C0.546,-0.318 0.534,-0.313 0.521,-0.313C0.509,-0.313 0.496,-0.319 0.482,-0.331C0.468,-0.343 0.455,-0.349 0.443,-0.349C0.427,-0.349 0.407,-0.342 0.385,-0.328C0.362,-0.313 0.326,-0.286 0.278,-0.247L0.278,-0.1L0.417,-0.1C0.439,-0.1 0.454,-0.097 0.463,-0.091C0.477,-0.08 0.484,-0.067 0.484,-0.05C0.484,-0.031 0.476,-0.016 0.46,-0.007C0.452,-0.002 0.438,-0 0.417,-0L0.12,-0C0.098,-0 0.083,-0.003 0.074,-0.01C0.061,-0.02 0.054,-0.033 0.054,-0.05C0.054,-0.069 0.062,-0.084 0.077,-0.093C0.084,-0.098 0.099,-0.1 0.12,-0.1L0.178,-0.1L0.178,-0.337L0.143,-0.337C0.122,-0.337 0.107,-0.341 0.098,-0.349C0.084,-0.359 0.077,-0.372 0.077,-0.387C0.077,-0.406 0.085,-0.42 0.101,-0.429C0.108,-0.434 0.122,-0.437 0.143,-0.437L0.278,-0.437Z" style="fill:rgb(255,0,157);fill-rule:nonzero;"/>
            </g>
            <g transform="matrix(154.167,0,0,154.167,1888.29,1776.6)">
                <path d="M0.409,-0.312L0.404,-0.321C0.377,-0.34 0.342,-0.35 0.301,-0.35C0.276,-0.35 0.253,-0.346 0.233,-0.34C0.212,-0.333 0.202,-0.324 0.202,-0.315C0.202,-0.306 0.211,-0.298 0.228,-0.291C0.238,-0.288 0.266,-0.283 0.312,-0.276C0.38,-0.267 0.428,-0.254 0.457,-0.238C0.479,-0.226 0.496,-0.21 0.508,-0.19C0.521,-0.17 0.527,-0.148 0.527,-0.125C0.527,-0.084 0.506,-0.051 0.464,-0.024C0.422,0.003 0.369,0.016 0.304,0.016C0.246,0.016 0.197,0.006 0.156,-0.013C0.145,-0.004 0.135,-0 0.124,-0C0.105,-0 0.091,-0.008 0.08,-0.025C0.075,-0.034 0.073,-0.048 0.073,-0.067L0.073,-0.1C0.073,-0.123 0.076,-0.138 0.083,-0.146C0.093,-0.16 0.107,-0.167 0.124,-0.167C0.149,-0.167 0.166,-0.152 0.175,-0.123C0.204,-0.097 0.245,-0.084 0.3,-0.084C0.332,-0.084 0.36,-0.088 0.383,-0.097C0.406,-0.106 0.417,-0.116 0.417,-0.127C0.417,-0.142 0.406,-0.153 0.383,-0.162C0.368,-0.168 0.337,-0.174 0.291,-0.179C0.221,-0.186 0.17,-0.201 0.139,-0.222C0.108,-0.243 0.092,-0.274 0.092,-0.313C0.092,-0.353 0.111,-0.386 0.15,-0.411C0.189,-0.437 0.238,-0.45 0.298,-0.45C0.347,-0.45 0.39,-0.441 0.427,-0.424C0.434,-0.441 0.445,-0.45 0.459,-0.45C0.49,-0.45 0.506,-0.428 0.506,-0.384L0.506,-0.347C0.506,-0.325 0.503,-0.31 0.497,-0.301C0.486,-0.288 0.472,-0.281 0.456,-0.281C0.436,-0.281 0.42,-0.291 0.409,-0.312Z" style="fill:rgb(255,0,157);fill-rule:nonzero;"/>
            </g>
            <g transform="matrix(70.8333,0,0,70.8333,870.788,1853.81)">
                <path d="M0.094,-0.1L0.094,-0.483L0.079,-0.483C0.057,-0.483 0.042,-0.486 0.034,-0.492C0.02,-0.503 0.013,-0.516 0.013,-0.533C0.013,-0.552 0.021,-0.566 0.037,-0.576C0.044,-0.581 0.058,-0.583 0.079,-0.583L0.332,-0.583C0.389,-0.583 0.436,-0.567 0.472,-0.536C0.509,-0.505 0.528,-0.465 0.528,-0.418C0.528,-0.375 0.507,-0.338 0.465,-0.305C0.536,-0.27 0.571,-0.221 0.571,-0.16C0.571,-0.112 0.553,-0.073 0.517,-0.044C0.481,-0.015 0.433,-0 0.374,-0L0.079,-0C0.056,-0 0.041,-0.003 0.034,-0.01C0.02,-0.02 0.013,-0.033 0.013,-0.05C0.013,-0.069 0.021,-0.084 0.037,-0.093C0.044,-0.098 0.058,-0.1 0.079,-0.1L0.094,-0.1ZM0.194,-0.342L0.307,-0.342C0.343,-0.342 0.372,-0.349 0.395,-0.364C0.417,-0.378 0.428,-0.396 0.428,-0.419C0.428,-0.439 0.419,-0.455 0.401,-0.466C0.383,-0.477 0.358,-0.483 0.327,-0.483L0.194,-0.483L0.194,-0.342ZM0.194,-0.1L0.369,-0.1C0.437,-0.1 0.471,-0.118 0.471,-0.154C0.471,-0.181 0.457,-0.203 0.428,-0.22C0.403,-0.235 0.37,-0.242 0.329,-0.242L0.194,-0.242L0.194,-0.1Z" style="fill-rule:nonzero;"/>
            </g>
            <g transform="matrix(70.8333,0,0,70.8333,913.288,1853.81)">
                <path d="M0.55,-0.172L0.142,-0.172C0.165,-0.113 0.219,-0.084 0.306,-0.084C0.343,-0.084 0.398,-0.093 0.469,-0.112C0.482,-0.115 0.493,-0.117 0.502,-0.117C0.515,-0.117 0.527,-0.112 0.536,-0.102C0.545,-0.093 0.55,-0.081 0.55,-0.067C0.55,-0.048 0.538,-0.033 0.515,-0.022C0.492,-0.012 0.459,-0.003 0.416,0.004C0.372,0.012 0.332,0.016 0.297,0.016C0.22,0.016 0.156,-0.006 0.107,-0.049C0.058,-0.092 0.033,-0.148 0.033,-0.216C0.033,-0.282 0.058,-0.338 0.108,-0.383C0.157,-0.428 0.218,-0.45 0.291,-0.45C0.366,-0.45 0.428,-0.427 0.476,-0.382C0.526,-0.337 0.55,-0.28 0.55,-0.211L0.55,-0.172ZM0.145,-0.26L0.439,-0.26C0.431,-0.287 0.414,-0.309 0.387,-0.326C0.36,-0.342 0.329,-0.35 0.292,-0.35C0.255,-0.35 0.224,-0.342 0.197,-0.325C0.17,-0.308 0.152,-0.287 0.145,-0.26Z" style="fill-rule:nonzero;"/>
            </g>
            <g transform="matrix(70.8333,0,0,70.8333,955.788,1853.81)">
                <path d="M0.195,-0.437L0.195,-0.389C0.219,-0.412 0.241,-0.428 0.261,-0.437C0.281,-0.446 0.305,-0.45 0.332,-0.45C0.377,-0.45 0.417,-0.438 0.451,-0.413C0.49,-0.384 0.51,-0.34 0.51,-0.282L0.51,-0.1C0.551,-0.1 0.571,-0.083 0.571,-0.05C0.571,-0.031 0.563,-0.016 0.547,-0.007C0.54,-0.002 0.526,-0 0.505,-0L0.416,-0C0.371,-0 0.349,-0.017 0.349,-0.05C0.349,-0.083 0.369,-0.1 0.41,-0.1L0.41,-0.278C0.41,-0.326 0.38,-0.35 0.32,-0.35C0.297,-0.35 0.276,-0.345 0.258,-0.335C0.239,-0.325 0.218,-0.307 0.195,-0.282L0.195,-0.1L0.201,-0.1C0.222,-0.1 0.237,-0.097 0.246,-0.091C0.26,-0.08 0.267,-0.067 0.267,-0.05C0.267,-0.032 0.259,-0.018 0.243,-0.007C0.236,-0.002 0.222,-0 0.201,-0L0.089,-0C0.068,-0 0.052,-0.003 0.043,-0.01C0.03,-0.02 0.023,-0.033 0.023,-0.05C0.023,-0.069 0.031,-0.084 0.047,-0.093C0.056,-0.098 0.07,-0.1 0.089,-0.1L0.095,-0.1L0.095,-0.337C0.054,-0.338 0.034,-0.355 0.034,-0.387C0.034,-0.401 0.038,-0.412 0.047,-0.422C0.055,-0.431 0.066,-0.436 0.08,-0.437C0.082,-0.438 0.086,-0.438 0.092,-0.438C0.097,-0.437 0.1,-0.437 0.101,-0.437L0.195,-0.437Z" style="fill-rule:nonzero;"/>
            </g>
            <g transform="matrix(70.8333,0,0,70.8333,998.288,1853.81)">
                <path d="M0.388,-0.337L0.186,-0.337C0.163,-0.337 0.148,-0.34 0.141,-0.347C0.127,-0.357 0.12,-0.37 0.12,-0.387C0.12,-0.406 0.128,-0.421 0.144,-0.43C0.151,-0.435 0.165,-0.437 0.186,-0.437L0.488,-0.437L0.488,0.02C0.488,0.073 0.47,0.117 0.434,0.152C0.397,0.187 0.352,0.205 0.297,0.205L0.183,0.205C0.16,0.205 0.145,0.202 0.138,0.195C0.124,0.185 0.117,0.172 0.117,0.155C0.117,0.136 0.125,0.122 0.141,0.112C0.148,0.107 0.162,0.105 0.183,0.105L0.294,0.105C0.323,0.105 0.345,0.097 0.363,0.082C0.38,0.067 0.388,0.046 0.388,0.02L0.388,-0.337ZM0.43,-0.624L0.43,-0.518L0.311,-0.518L0.311,-0.624L0.43,-0.624Z" style="fill-rule:nonzero;"/>
            </g>
            <g transform="matrix(70.8333,0,0,70.8333,1040.79,1853.81)">
                <path d="M0.35,-0.437L0.35,-0.1L0.472,-0.1C0.493,-0.1 0.508,-0.097 0.517,-0.091C0.531,-0.08 0.538,-0.067 0.538,-0.05C0.538,-0.032 0.53,-0.018 0.514,-0.007C0.506,-0.002 0.492,-0 0.472,-0L0.128,-0C0.105,-0 0.09,-0.003 0.083,-0.01C0.069,-0.02 0.062,-0.033 0.062,-0.05C0.062,-0.069 0.07,-0.084 0.086,-0.093C0.093,-0.098 0.107,-0.1 0.128,-0.1L0.25,-0.1L0.25,-0.337L0.172,-0.337C0.149,-0.337 0.133,-0.34 0.126,-0.347C0.112,-0.357 0.105,-0.37 0.105,-0.387C0.105,-0.406 0.113,-0.421 0.129,-0.43C0.136,-0.435 0.151,-0.437 0.172,-0.437L0.35,-0.437ZM0.336,-0.624L0.336,-0.518L0.218,-0.518L0.218,-0.624L0.336,-0.624Z" style="fill-rule:nonzero;"/>
            </g>
            <g transform="matrix(70.8333,0,0,70.8333,1125.79,1853.81)">
                <path d="M0.35,-0.556L0.35,0.087C0.35,0.108 0.347,0.123 0.341,0.132C0.33,0.146 0.317,0.153 0.3,0.153C0.282,0.153 0.268,0.145 0.257,0.129C0.252,0.122 0.25,0.108 0.25,0.087L0.25,-0.556C0.25,-0.579 0.253,-0.595 0.259,-0.604C0.27,-0.617 0.284,-0.624 0.3,-0.624C0.318,-0.624 0.332,-0.615 0.343,-0.598C0.348,-0.589 0.35,-0.575 0.35,-0.556Z" style="fill-rule:nonzero;"/>
            </g>
            <g transform="matrix(70.8333,0,0,70.8333,1210.79,1853.81)">
                <path d="M0.517,-0.531L0.517,-0.443C0.517,-0.421 0.514,-0.406 0.508,-0.397C0.497,-0.383 0.484,-0.376 0.468,-0.376C0.455,-0.376 0.443,-0.381 0.434,-0.39C0.427,-0.397 0.422,-0.411 0.418,-0.43C0.413,-0.45 0.4,-0.466 0.379,-0.478C0.357,-0.491 0.33,-0.497 0.299,-0.497C0.268,-0.497 0.241,-0.49 0.219,-0.475C0.197,-0.46 0.186,-0.442 0.186,-0.421C0.186,-0.41 0.19,-0.4 0.197,-0.39C0.203,-0.379 0.212,-0.371 0.223,-0.366C0.238,-0.358 0.272,-0.349 0.323,-0.34C0.399,-0.326 0.451,-0.308 0.479,-0.285C0.518,-0.254 0.538,-0.212 0.538,-0.16C0.538,-0.108 0.517,-0.066 0.475,-0.034C0.433,-0.002 0.378,0.014 0.309,0.014C0.254,0.014 0.202,0.001 0.153,-0.025C0.139,-0.008 0.126,-0 0.113,-0C0.079,-0 0.062,-0.022 0.062,-0.067L0.062,-0.133C0.062,-0.155 0.065,-0.17 0.071,-0.179C0.081,-0.192 0.095,-0.199 0.112,-0.199C0.127,-0.199 0.139,-0.194 0.148,-0.185C0.153,-0.18 0.158,-0.169 0.163,-0.151C0.168,-0.133 0.184,-0.118 0.211,-0.105C0.238,-0.092 0.269,-0.086 0.302,-0.086C0.339,-0.086 0.371,-0.093 0.396,-0.108C0.421,-0.123 0.434,-0.141 0.434,-0.162C0.434,-0.184 0.422,-0.202 0.398,-0.215C0.382,-0.224 0.347,-0.233 0.293,-0.242C0.236,-0.251 0.193,-0.264 0.164,-0.281C0.139,-0.296 0.119,-0.315 0.104,-0.34C0.089,-0.365 0.082,-0.391 0.082,-0.42C0.082,-0.471 0.103,-0.513 0.144,-0.547C0.185,-0.58 0.237,-0.597 0.299,-0.597C0.351,-0.597 0.394,-0.586 0.429,-0.564C0.434,-0.577 0.44,-0.585 0.445,-0.59C0.45,-0.595 0.458,-0.597 0.468,-0.597C0.487,-0.597 0.501,-0.589 0.51,-0.574C0.515,-0.567 0.517,-0.553 0.517,-0.531Z" style="fill-rule:nonzero;"/>
            </g>
            <g transform="matrix(70.8333,0,0,70.8333,1253.29,1853.81)">
                <path d="M0.214,-0.337L0.214,-0.141C0.214,-0.122 0.217,-0.11 0.222,-0.104C0.234,-0.091 0.26,-0.084 0.3,-0.084C0.353,-0.084 0.401,-0.095 0.446,-0.118C0.46,-0.125 0.472,-0.129 0.481,-0.129C0.494,-0.129 0.506,-0.124 0.515,-0.114C0.524,-0.104 0.529,-0.092 0.529,-0.078C0.529,-0.066 0.525,-0.056 0.518,-0.049C0.511,-0.041 0.498,-0.033 0.479,-0.024C0.455,-0.013 0.426,-0.003 0.391,0.004C0.356,0.012 0.325,0.016 0.299,0.016C0.242,0.016 0.197,0.004 0.164,-0.021C0.131,-0.046 0.114,-0.079 0.114,-0.122L0.114,-0.337L0.079,-0.337C0.057,-0.337 0.042,-0.34 0.033,-0.347C0.02,-0.357 0.013,-0.37 0.013,-0.387C0.013,-0.406 0.021,-0.421 0.037,-0.43C0.044,-0.435 0.058,-0.437 0.079,-0.437L0.114,-0.437L0.114,-0.525C0.114,-0.547 0.117,-0.562 0.124,-0.571C0.134,-0.584 0.147,-0.591 0.164,-0.591C0.183,-0.591 0.198,-0.583 0.207,-0.567C0.212,-0.56 0.214,-0.546 0.214,-0.525L0.214,-0.437L0.395,-0.437C0.416,-0.437 0.432,-0.434 0.441,-0.428C0.454,-0.417 0.461,-0.403 0.461,-0.387C0.461,-0.368 0.453,-0.353 0.437,-0.344C0.43,-0.339 0.416,-0.337 0.395,-0.337L0.214,-0.337Z" style="fill-rule:nonzero;"/>
            </g>
            <g transform="matrix(70.8333,0,0,70.8333,1295.79,1853.81)">
                <path d="M0.51,-0.437L0.51,-0.1C0.551,-0.1 0.571,-0.083 0.571,-0.05C0.571,-0.032 0.563,-0.018 0.547,-0.007C0.54,-0.002 0.526,-0 0.505,-0L0.41,-0L0.41,-0.048C0.385,-0.025 0.363,-0.009 0.344,-0C0.324,0.009 0.3,0.013 0.273,0.013C0.226,0.013 0.187,0.001 0.154,-0.024C0.115,-0.053 0.095,-0.097 0.095,-0.156L0.095,-0.337L0.064,-0.337C0.05,-0.337 0.038,-0.342 0.028,-0.352C0.018,-0.361 0.013,-0.373 0.013,-0.387C0.013,-0.406 0.021,-0.421 0.037,-0.43C0.044,-0.435 0.058,-0.437 0.079,-0.437L0.195,-0.437L0.195,-0.159C0.195,-0.111 0.224,-0.087 0.283,-0.087C0.308,-0.087 0.329,-0.092 0.346,-0.101C0.363,-0.11 0.384,-0.128 0.41,-0.155L0.41,-0.337L0.375,-0.337C0.352,-0.337 0.337,-0.34 0.33,-0.347C0.316,-0.357 0.309,-0.37 0.309,-0.387C0.309,-0.406 0.317,-0.421 0.333,-0.43C0.34,-0.435 0.354,-0.437 0.375,-0.437L0.51,-0.437Z" style="fill-rule:nonzero;"/>
            </g>
            <g transform="matrix(70.8333,0,0,70.8333,1338.29,1853.81)">
                <path d="M0.195,-0.437L0.195,-0.389C0.219,-0.412 0.241,-0.428 0.261,-0.437C0.281,-0.446 0.305,-0.45 0.332,-0.45C0.377,-0.45 0.417,-0.438 0.451,-0.413C0.49,-0.384 0.51,-0.34 0.51,-0.282L0.51,-0.1C0.551,-0.1 0.571,-0.083 0.571,-0.05C0.571,-0.031 0.563,-0.016 0.547,-0.007C0.54,-0.002 0.526,-0 0.505,-0L0.416,-0C0.371,-0 0.349,-0.017 0.349,-0.05C0.349,-0.083 0.369,-0.1 0.41,-0.1L0.41,-0.278C0.41,-0.326 0.38,-0.35 0.32,-0.35C0.297,-0.35 0.276,-0.345 0.258,-0.335C0.239,-0.325 0.218,-0.307 0.195,-0.282L0.195,-0.1L0.201,-0.1C0.222,-0.1 0.237,-0.097 0.246,-0.091C0.26,-0.08 0.267,-0.067 0.267,-0.05C0.267,-0.032 0.259,-0.018 0.243,-0.007C0.236,-0.002 0.222,-0 0.201,-0L0.089,-0C0.068,-0 0.052,-0.003 0.043,-0.01C0.03,-0.02 0.023,-0.033 0.023,-0.05C0.023,-0.069 0.031,-0.084 0.047,-0.093C0.056,-0.098 0.07,-0.1 0.089,-0.1L0.095,-0.1L0.095,-0.337C0.054,-0.338 0.034,-0.355 0.034,-0.387C0.034,-0.401 0.038,-0.412 0.047,-0.422C0.055,-0.431 0.066,-0.436 0.08,-0.437C0.082,-0.438 0.086,-0.438 0.092,-0.438C0.097,-0.437 0.1,-0.437 0.101,-0.437L0.195,-0.437Z" style="fill-rule:nonzero;"/>
            </g>
            <g transform="matrix(70.8333,0,0,70.8333,1380.79,1853.81)">
                <path d="M0.214,-0.337L0.214,-0.141C0.214,-0.122 0.217,-0.11 0.222,-0.104C0.234,-0.091 0.26,-0.084 0.3,-0.084C0.353,-0.084 0.401,-0.095 0.446,-0.118C0.46,-0.125 0.472,-0.129 0.481,-0.129C0.494,-0.129 0.506,-0.124 0.515,-0.114C0.524,-0.104 0.529,-0.092 0.529,-0.078C0.529,-0.066 0.525,-0.056 0.518,-0.049C0.511,-0.041 0.498,-0.033 0.479,-0.024C0.455,-0.013 0.426,-0.003 0.391,0.004C0.356,0.012 0.325,0.016 0.299,0.016C0.242,0.016 0.197,0.004 0.164,-0.021C0.131,-0.046 0.114,-0.079 0.114,-0.122L0.114,-0.337L0.079,-0.337C0.057,-0.337 0.042,-0.34 0.033,-0.347C0.02,-0.357 0.013,-0.37 0.013,-0.387C0.013,-0.406 0.021,-0.421 0.037,-0.43C0.044,-0.435 0.058,-0.437 0.079,-0.437L0.114,-0.437L0.114,-0.525C0.114,-0.547 0.117,-0.562 0.124,-0.571C0.134,-0.584 0.147,-0.591 0.164,-0.591C0.183,-0.591 0.198,-0.583 0.207,-0.567C0.212,-0.56 0.214,-0.546 0.214,-0.525L0.214,-0.437L0.395,-0.437C0.416,-0.437 0.432,-0.434 0.441,-0.428C0.454,-0.417 0.461,-0.403 0.461,-0.387C0.461,-0.368 0.453,-0.353 0.437,-0.344C0.43,-0.339 0.416,-0.337 0.395,-0.337L0.214,-0.337Z" style="fill-rule:nonzero;"/>
            </g>
            <g transform="matrix(70.8333,0,0,70.8333,1423.29,1853.81)">
                <path d="M0.409,-0.312L0.404,-0.321C0.377,-0.34 0.342,-0.35 0.301,-0.35C0.276,-0.35 0.253,-0.346 0.233,-0.34C0.212,-0.333 0.202,-0.324 0.202,-0.315C0.202,-0.306 0.211,-0.298 0.228,-0.291C0.238,-0.288 0.266,-0.283 0.312,-0.276C0.38,-0.267 0.428,-0.254 0.457,-0.238C0.479,-0.226 0.496,-0.21 0.508,-0.19C0.521,-0.17 0.527,-0.148 0.527,-0.125C0.527,-0.084 0.506,-0.051 0.464,-0.024C0.422,0.003 0.369,0.016 0.304,0.016C0.246,0.016 0.197,0.006 0.156,-0.013C0.145,-0.004 0.135,-0 0.124,-0C0.105,-0 0.091,-0.008 0.08,-0.025C0.075,-0.034 0.073,-0.048 0.073,-0.067L0.073,-0.1C0.073,-0.123 0.076,-0.138 0.083,-0.146C0.093,-0.16 0.107,-0.167 0.124,-0.167C0.149,-0.167 0.166,-0.152 0.175,-0.123C0.204,-0.097 0.245,-0.084 0.3,-0.084C0.332,-0.084 0.36,-0.088 0.383,-0.097C0.406,-0.106 0.417,-0.116 0.417,-0.127C0.417,-0.142 0.406,-0.153 0.383,-0.162C0.368,-0.168 0.337,-0.174 0.291,-0.179C0.221,-0.186 0.17,-0.201 0.139,-0.222C0.108,-0.243 0.092,-0.274 0.092,-0.313C0.092,-0.353 0.111,-0.386 0.15,-0.411C0.189,-0.437 0.238,-0.45 0.298,-0.45C0.347,-0.45 0.39,-0.441 0.427,-0.424C0.434,-0.441 0.445,-0.45 0.459,-0.45C0.49,-0.45 0.506,-0.428 0.506,-0.384L0.506,-0.347C0.506,-0.325 0.503,-0.31 0.497,-0.301C0.486,-0.288 0.472,-0.281 0.456,-0.281C0.436,-0.281 0.42,-0.291 0.409,-0.312Z" style="fill-rule:nonzero;"/>
            </g>
            <g transform="matrix(70.8333,0,0,70.8333,1508.29,1853.81)">
                <path d="M0.35,-0.556L0.35,0.087C0.35,0.108 0.347,0.123 0.341,0.132C0.33,0.146 0.317,0.153 0.3,0.153C0.282,0.153 0.268,0.145 0.257,0.129C0.252,0.122 0.25,0.108 0.25,0.087L0.25,-0.556C0.25,-0.579 0.253,-0.595 0.259,-0.604C0.27,-0.617 0.284,-0.624 0.3,-0.624C0.318,-0.624 0.332,-0.615 0.343,-0.598C0.348,-0.589 0.35,-0.575 0.35,-0.556Z" style="fill-rule:nonzero;"/>
            </g>
            <g transform="matrix(70.8333,0,0,70.8333,1593.29,1853.81)">
                <path d="M0.416,-0.158L0.178,-0.158L0.155,-0.1L0.178,-0.1C0.199,-0.1 0.214,-0.097 0.223,-0.091C0.237,-0.08 0.244,-0.067 0.244,-0.05C0.244,-0.031 0.236,-0.016 0.22,-0.007C0.213,-0.002 0.199,-0 0.178,-0L0.045,-0C0.001,-0 -0.021,-0.017 -0.021,-0.05C-0.021,-0.069 -0.013,-0.084 0.003,-0.093C0.01,-0.098 0.025,-0.1 0.046,-0.1L0.201,-0.483L0.138,-0.483C0.116,-0.483 0.101,-0.486 0.092,-0.492C0.078,-0.503 0.071,-0.516 0.071,-0.533C0.071,-0.551 0.079,-0.565 0.095,-0.576C0.102,-0.581 0.116,-0.583 0.138,-0.583L0.354,-0.583L0.553,-0.1C0.576,-0.1 0.592,-0.097 0.6,-0.09C0.614,-0.08 0.621,-0.067 0.621,-0.05C0.621,-0.031 0.613,-0.016 0.597,-0.007C0.59,-0.002 0.576,-0 0.555,-0L0.416,-0C0.395,-0 0.38,-0.003 0.371,-0.01C0.357,-0.02 0.35,-0.033 0.35,-0.05C0.35,-0.069 0.358,-0.084 0.374,-0.093C0.381,-0.098 0.395,-0.1 0.416,-0.1L0.439,-0.1L0.416,-0.158ZM0.375,-0.258L0.297,-0.45L0.218,-0.258L0.375,-0.258Z" style="fill-rule:nonzero;"/>
            </g>
            <g transform="matrix(70.8333,0,0,70.8333,1635.79,1853.81)">
                <path d="M0.531,-0.624L0.531,-0.1L0.547,-0.1C0.569,-0.1 0.584,-0.097 0.593,-0.091C0.606,-0.08 0.613,-0.066 0.613,-0.05C0.613,-0.031 0.605,-0.016 0.589,-0.007C0.582,-0.002 0.568,-0 0.547,-0L0.431,-0L0.431,-0.035C0.383,-0.002 0.333,0.014 0.28,0.014C0.207,0.014 0.148,-0.008 0.103,-0.051C0.056,-0.096 0.033,-0.152 0.033,-0.219C0.033,-0.286 0.056,-0.341 0.103,-0.386C0.148,-0.429 0.208,-0.451 0.281,-0.451C0.339,-0.451 0.389,-0.434 0.431,-0.401L0.431,-0.525L0.415,-0.525C0.393,-0.525 0.378,-0.528 0.369,-0.534C0.356,-0.545 0.349,-0.559 0.349,-0.575C0.349,-0.594 0.357,-0.608 0.373,-0.617C0.38,-0.622 0.394,-0.624 0.415,-0.624L0.531,-0.624ZM0.281,-0.351C0.235,-0.351 0.199,-0.338 0.172,-0.311C0.146,-0.285 0.133,-0.254 0.133,-0.219C0.133,-0.184 0.146,-0.153 0.172,-0.126C0.199,-0.099 0.236,-0.086 0.282,-0.086C0.328,-0.086 0.365,-0.099 0.392,-0.126C0.418,-0.152 0.431,-0.182 0.431,-0.217C0.431,-0.254 0.418,-0.285 0.392,-0.311C0.365,-0.338 0.328,-0.351 0.281,-0.351Z" style="fill-rule:nonzero;"/>
            </g>
            <g transform="matrix(70.8333,0,0,70.8333,1678.29,1853.81)">
                <path d="M0.302,-0.122L0.409,-0.337L0.399,-0.337C0.377,-0.337 0.362,-0.34 0.354,-0.346C0.34,-0.357 0.333,-0.37 0.333,-0.387C0.333,-0.406 0.341,-0.421 0.357,-0.43C0.366,-0.435 0.38,-0.437 0.399,-0.437L0.534,-0.437C0.556,-0.437 0.571,-0.434 0.58,-0.428C0.593,-0.417 0.6,-0.403 0.6,-0.387C0.6,-0.368 0.592,-0.353 0.576,-0.344C0.569,-0.339 0.555,-0.337 0.534,-0.337L0.518,-0.337L0.351,-0L0.247,-0L0.08,-0.337L0.066,-0.337C0.044,-0.337 0.029,-0.34 0.021,-0.346C0.007,-0.357 0,-0.37 0,-0.387C0,-0.406 0.008,-0.421 0.024,-0.43C0.033,-0.435 0.047,-0.437 0.066,-0.437L0.198,-0.437C0.22,-0.437 0.235,-0.434 0.244,-0.428C0.257,-0.417 0.264,-0.403 0.264,-0.387C0.264,-0.368 0.256,-0.353 0.24,-0.344C0.233,-0.339 0.219,-0.337 0.198,-0.337L0.193,-0.337L0.302,-0.122Z" style="fill-rule:nonzero;"/>
            </g>
            <g transform="matrix(70.8333,0,0,70.8333,1720.79,1853.81)">
                <path d="M0.55,-0.172L0.142,-0.172C0.165,-0.113 0.219,-0.084 0.306,-0.084C0.343,-0.084 0.398,-0.093 0.469,-0.112C0.482,-0.115 0.493,-0.117 0.502,-0.117C0.515,-0.117 0.527,-0.112 0.536,-0.102C0.545,-0.093 0.55,-0.081 0.55,-0.067C0.55,-0.048 0.538,-0.033 0.515,-0.022C0.492,-0.012 0.459,-0.003 0.416,0.004C0.372,0.012 0.332,0.016 0.297,0.016C0.22,0.016 0.156,-0.006 0.107,-0.049C0.058,-0.092 0.033,-0.148 0.033,-0.216C0.033,-0.282 0.058,-0.338 0.108,-0.383C0.157,-0.428 0.218,-0.45 0.291,-0.45C0.366,-0.45 0.428,-0.427 0.476,-0.382C0.526,-0.337 0.55,-0.28 0.55,-0.211L0.55,-0.172ZM0.145,-0.26L0.439,-0.26C0.431,-0.287 0.414,-0.309 0.387,-0.326C0.36,-0.342 0.329,-0.35 0.292,-0.35C0.255,-0.35 0.224,-0.342 0.197,-0.325C0.17,-0.308 0.152,-0.287 0.145,-0.26Z" style="fill-rule:nonzero;"/>
            </g>
            <g transform="matrix(70.8333,0,0,70.8333,1763.29,1853.81)">
                <path d="M0.195,-0.437L0.195,-0.389C0.219,-0.412 0.241,-0.428 0.261,-0.437C0.281,-0.446 0.305,-0.45 0.332,-0.45C0.377,-0.45 0.417,-0.438 0.451,-0.413C0.49,-0.384 0.51,-0.34 0.51,-0.282L0.51,-0.1C0.551,-0.1 0.571,-0.083 0.571,-0.05C0.571,-0.031 0.563,-0.016 0.547,-0.007C0.54,-0.002 0.526,-0 0.505,-0L0.416,-0C0.371,-0 0.349,-0.017 0.349,-0.05C0.349,-0.083 0.369,-0.1 0.41,-0.1L0.41,-0.278C0.41,-0.326 0.38,-0.35 0.32,-0.35C0.297,-0.35 0.276,-0.345 0.258,-0.335C0.239,-0.325 0.218,-0.307 0.195,-0.282L0.195,-0.1L0.201,-0.1C0.222,-0.1 0.237,-0.097 0.246,-0.091C0.26,-0.08 0.267,-0.067 0.267,-0.05C0.267,-0.032 0.259,-0.018 0.243,-0.007C0.236,-0.002 0.222,-0 0.201,-0L0.089,-0C0.068,-0 0.052,-0.003 0.043,-0.01C0.03,-0.02 0.023,-0.033 0.023,-0.05C0.023,-0.069 0.031,-0.084 0.047,-0.093C0.056,-0.098 0.07,-0.1 0.089,-0.1L0.095,-0.1L0.095,-0.337C0.054,-0.338 0.034,-0.355 0.034,-0.387C0.034,-0.401 0.038,-0.412 0.047,-0.422C0.055,-0.431 0.066,-0.436 0.08,-0.437C0.082,-0.438 0.086,-0.438 0.092,-0.438C0.097,-0.437 0.1,-0.437 0.101,-0.437L0.195,-0.437Z" style="fill-rule:nonzero;"/>
            </g>
            <g transform="matrix(70.8333,0,0,70.8333,1805.79,1853.81)">
                <path d="M0.214,-0.337L0.214,-0.141C0.214,-0.122 0.217,-0.11 0.222,-0.104C0.234,-0.091 0.26,-0.084 0.3,-0.084C0.353,-0.084 0.401,-0.095 0.446,-0.118C0.46,-0.125 0.472,-0.129 0.481,-0.129C0.494,-0.129 0.506,-0.124 0.515,-0.114C0.524,-0.104 0.529,-0.092 0.529,-0.078C0.529,-0.066 0.525,-0.056 0.518,-0.049C0.511,-0.041 0.498,-0.033 0.479,-0.024C0.455,-0.013 0.426,-0.003 0.391,0.004C0.356,0.012 0.325,0.016 0.299,0.016C0.242,0.016 0.197,0.004 0.164,-0.021C0.131,-0.046 0.114,-0.079 0.114,-0.122L0.114,-0.337L0.079,-0.337C0.057,-0.337 0.042,-0.34 0.033,-0.347C0.02,-0.357 0.013,-0.37 0.013,-0.387C0.013,-0.406 0.021,-0.421 0.037,-0.43C0.044,-0.435 0.058,-0.437 0.079,-0.437L0.114,-0.437L0.114,-0.525C0.114,-0.547 0.117,-0.562 0.124,-0.571C0.134,-0.584 0.147,-0.591 0.164,-0.591C0.183,-0.591 0.198,-0.583 0.207,-0.567C0.212,-0.56 0.214,-0.546 0.214,-0.525L0.214,-0.437L0.395,-0.437C0.416,-0.437 0.432,-0.434 0.441,-0.428C0.454,-0.417 0.461,-0.403 0.461,-0.387C0.461,-0.368 0.453,-0.353 0.437,-0.344C0.43,-0.339 0.416,-0.337 0.395,-0.337L0.214,-0.337Z" style="fill-rule:nonzero;"/>
            </g>
            <g transform="matrix(70.8333,0,0,70.8333,1848.29,1853.81)">
                <path d="M0.51,-0.437L0.51,-0.1C0.551,-0.1 0.571,-0.083 0.571,-0.05C0.571,-0.032 0.563,-0.018 0.547,-0.007C0.54,-0.002 0.526,-0 0.505,-0L0.41,-0L0.41,-0.048C0.385,-0.025 0.363,-0.009 0.344,-0C0.324,0.009 0.3,0.013 0.273,0.013C0.226,0.013 0.187,0.001 0.154,-0.024C0.115,-0.053 0.095,-0.097 0.095,-0.156L0.095,-0.337L0.064,-0.337C0.05,-0.337 0.038,-0.342 0.028,-0.352C0.018,-0.361 0.013,-0.373 0.013,-0.387C0.013,-0.406 0.021,-0.421 0.037,-0.43C0.044,-0.435 0.058,-0.437 0.079,-0.437L0.195,-0.437L0.195,-0.159C0.195,-0.111 0.224,-0.087 0.283,-0.087C0.308,-0.087 0.329,-0.092 0.346,-0.101C0.363,-0.11 0.384,-0.128 0.41,-0.155L0.41,-0.337L0.375,-0.337C0.352,-0.337 0.337,-0.34 0.33,-0.347C0.316,-0.357 0.309,-0.37 0.309,-0.387C0.309,-0.406 0.317,-0.421 0.333,-0.43C0.34,-0.435 0.354,-0.437 0.375,-0.437L0.51,-0.437Z" style="fill-rule:nonzero;"/>
            </g>
            <g transform="matrix(70.8333,0,0,70.8333,1890.79,1853.81)">
                <path d="M0.278,-0.437L0.278,-0.372C0.318,-0.402 0.35,-0.422 0.373,-0.433C0.396,-0.444 0.42,-0.449 0.445,-0.449C0.48,-0.449 0.513,-0.436 0.543,-0.411C0.562,-0.396 0.571,-0.38 0.571,-0.364C0.571,-0.35 0.566,-0.338 0.556,-0.328C0.546,-0.318 0.534,-0.313 0.521,-0.313C0.509,-0.313 0.496,-0.319 0.482,-0.331C0.468,-0.343 0.455,-0.349 0.443,-0.349C0.427,-0.349 0.407,-0.342 0.385,-0.328C0.362,-0.313 0.326,-0.286 0.278,-0.247L0.278,-0.1L0.417,-0.1C0.439,-0.1 0.454,-0.097 0.463,-0.091C0.477,-0.08 0.484,-0.067 0.484,-0.05C0.484,-0.031 0.476,-0.016 0.46,-0.007C0.452,-0.002 0.438,-0 0.417,-0L0.12,-0C0.098,-0 0.083,-0.003 0.074,-0.01C0.061,-0.02 0.054,-0.033 0.054,-0.05C0.054,-0.069 0.062,-0.084 0.077,-0.093C0.084,-0.098 0.099,-0.1 0.12,-0.1L0.178,-0.1L0.178,-0.337L0.143,-0.337C0.122,-0.337 0.107,-0.341 0.098,-0.349C0.084,-0.359 0.077,-0.372 0.077,-0.387C0.077,-0.406 0.085,-0.42 0.101,-0.429C0.108,-0.434 0.122,-0.437 0.143,-0.437L0.278,-0.437Z" style="fill-rule:nonzero;"/>
            </g>
            <g transform="matrix(70.8333,0,0,70.8333,1933.29,1853.81)">
                <path d="M0.55,-0.172L0.142,-0.172C0.165,-0.113 0.219,-0.084 0.306,-0.084C0.343,-0.084 0.398,-0.093 0.469,-0.112C0.482,-0.115 0.493,-0.117 0.502,-0.117C0.515,-0.117 0.527,-0.112 0.536,-0.102C0.545,-0.093 0.55,-0.081 0.55,-0.067C0.55,-0.048 0.538,-0.033 0.515,-0.022C0.492,-0.012 0.459,-0.003 0.416,0.004C0.372,0.012 0.332,0.016 0.297,0.016C0.22,0.016 0.156,-0.006 0.107,-0.049C0.058,-0.092 0.033,-0.148 0.033,-0.216C0.033,-0.282 0.058,-0.338 0.108,-0.383C0.157,-0.428 0.218,-0.45 0.291,-0.45C0.366,-0.45 0.428,-0.427 0.476,-0.382C0.526,-0.337 0.55,-0.28 0.55,-0.211L0.55,-0.172ZM0.145,-0.26L0.439,-0.26C0.431,-0.287 0.414,-0.309 0.387,-0.326C0.36,-0.342 0.329,-0.35 0.292,-0.35C0.255,-0.35 0.224,-0.342 0.197,-0.325C0.17,-0.308 0.152,-0.287 0.145,-0.26Z" style="fill-rule:nonzero;"/>
            </g>
        </g>
    </g>
</svg>
